<?xml version="1.0" encoding="UTF-8" standalone="no"?>
<svg
   xmlns:dc="http://purl.org/dc/elements/1.1/"
   xmlns:cc="http://creativecommons.org/ns#"
   xmlns:rdf="http://www.w3.org/1999/02/22-rdf-syntax-ns#"
   xmlns:svg="http://www.w3.org/2000/svg"
   xmlns="http://www.w3.org/2000/svg"
   xmlns:xlink="http://www.w3.org/1999/xlink"
   xmlns:sodipodi="http://sodipodi.sourceforge.net/DTD/sodipodi-0.dtd"
   xmlns:inkscape="http://www.inkscape.org/namespaces/inkscape"
   version="1.2"
   width="85.007408mm"
   height="32.509426mm"
   viewBox="0 0 48.373911 18.499659"
   id="svg2"
   inkscape:version="0.91 r13725"
   sodipodi:docname="scale.svg">
  <metadata
     id="metadata320">
    <rdf:RDF>
      <cc:Work
         rdf:about="">
        <dc:format>image/svg+xml</dc:format>
        <dc:type
           rdf:resource="http://purl.org/dc/dcmitype/StillImage" />
      </cc:Work>
    </rdf:RDF>
  </metadata>
  <defs
     id="defs318" />
  <sodipodi:namedview
     pagecolor="#ffffff"
     bordercolor="#666666"
     borderopacity="1"
     objecttolerance="10"
     gridtolerance="10"
     guidetolerance="10"
     inkscape:pageopacity="0"
     inkscape:pageshadow="2"
     inkscape:window-width="890"
     inkscape:window-height="852"
     id="namedview316"
     showgrid="false"
     inkscape:zoom="0.89702956"
     inkscape:cx="63.743363"
     inkscape:cy="-78.548836"
     inkscape:window-x="2345"
     inkscape:window-y="187"
     inkscape:window-maximized="0"
     inkscape:current-layer="svg2" />
  <!-- Page: 1/1 -->
  <text
     font-size="2.2001"
     id="text4"
     style="font-size:2.20009995px;font-family:'LilyPond Serif';text-anchor:start;fill:currentColor"
     x="1.3099999"
     y="-2.605">
    <tspan
       id="tspan6" />
  </text>
  <line
     x1="1.36"
     y1="5.7789998"
     x2="48.3232"
     y2="5.7789998"
     id="line8"
     style="stroke:currentColor;stroke-width:0.1;stroke-linecap:round;stroke-linejoin:round" />
  <line
     x1="1.36"
     y1="4.7789998"
     x2="48.3232"
     y2="4.7789998"
     id="line10"
     style="stroke:currentColor;stroke-width:0.1;stroke-linecap:round;stroke-linejoin:round" />
  <line
     x1="1.36"
     y1="3.779"
     x2="48.3232"
     y2="3.779"
     id="line12"
     style="stroke:currentColor;stroke-width:0.1;stroke-linecap:round;stroke-linejoin:round" />
  <line
     x1="1.36"
     y1="2.779"
     x2="48.3232"
     y2="2.779"
     id="line14"
     style="stroke:currentColor;stroke-width:0.1;stroke-linecap:round;stroke-linejoin:round" />
  <line
     x1="1.36"
     y1="1.779"
     x2="48.3232"
     y2="1.779"
     id="line16"
     style="stroke:currentColor;stroke-width:0.1;stroke-linecap:round;stroke-linejoin:round" />
  <rect
     x="28.962"
     y="5.829"
     width="0.19"
     height="3.5643001"
     ry="0.0000"
     id="rect18"
     style="fill:currentColor" />
  <rect
     x="28.962"
     y="9.3432999"
     width="0.19"
     height="7.5500002"
     ry="0.0000"
     id="rect20"
     style="fill:currentColor" />
  <rect
     x="48.183201"
     y="1.779"
     width="0.19"
     height="4.0500002"
     ry="0.0000"
     id="rect22"
     style="fill:currentColor" />
  <rect
     x="28.962"
     y="1.779"
     width="0.19"
     height="4.0500002"
     ry="0.0000"
     id="rect24"
     style="fill:currentColor" />
  <rect
     x="48.183201"
     y="9.3432999"
     width="0.19"
     height="7.5500002"
     ry="0.0000"
     id="rect26"
     style="fill:currentColor" />
  <rect
     x="48.183201"
     y="5.829"
     width="0.19"
     height="3.5643001"
     ry="0.0000"
     id="rect28"
     style="fill:currentColor" />
  <line
     x1="1.36"
     y1="16.893299"
     x2="48.3232"
     y2="16.893299"
     id="line30"
     style="stroke:currentColor;stroke-width:0.1;stroke-linecap:round;stroke-linejoin:round" />
  <line
     x1="1.36"
     y1="15.3933"
     x2="48.3232"
     y2="15.3933"
     id="line32"
     style="stroke:currentColor;stroke-width:0.1;stroke-linecap:round;stroke-linejoin:round" />
  <line
     x1="1.36"
     y1="13.8933"
     x2="48.3232"
     y2="13.8933"
     id="line34"
     style="stroke:currentColor;stroke-width:0.1;stroke-linecap:round;stroke-linejoin:round" />
  <line
     x1="1.36"
     y1="12.3933"
     x2="48.3232"
     y2="12.3933"
     id="line36"
     style="stroke:currentColor;stroke-width:0.1;stroke-linecap:round;stroke-linejoin:round" />
  <line
     x1="1.36"
     y1="10.8933"
     x2="48.3232"
     y2="10.8933"
     id="line38"
     style="stroke:currentColor;stroke-width:0.1;stroke-linecap:round;stroke-linejoin:round" />
  <line
     x1="1.36"
     y1="9.3933001"
     x2="48.3232"
     y2="9.3933001"
     id="line40"
     style="stroke:currentColor;stroke-width:0.1;stroke-linecap:round;stroke-linejoin:round" />
  <rect
     x="9.3647003"
     y="6.6789999"
     width="1.9743"
     height="0.2"
     ry="0.1"
     id="rect42"
     style="fill:currentColor" />
  <rect
     x="44.139"
     y="6.6789999"
     width="1.9743"
     height="0.2"
     ry="0.1"
     id="rect44"
     style="fill:currentColor" />
  <a
     style="color:inherit"
     xlink:href="textedit:///home/drt/Development/Audio/vtab-utils/examples/-:37:19:20"
     id="a46"
     transform="translate(-10.0711,-5.4503)">
    <g
       id="g48"
       style="color:#ffffff">
      <rect
         transform="translate(44.9285,17.8436)"
         x="0.098999999"
         y="-0.63169998"
         width="0.99019998"
         height="1.2632999"
         ry="0.0000"
         id="rect50"
         style="fill:currentColor" />
    </g>
    <text
       transform="translate(45.0275,18.4411)"
       font-weight="bold"
       font-size="1.7461"
       id="text52"
       style="font-weight:bold;font-size:1.74609995px;font-family:'LilyPond Serif';text-anchor:start;fill:currentColor">
      <tspan
         id="tspan54">0</tspan>
    </text>
  </a>
  <rect
     x="38.446201"
     y="1.7718"
     width="0.13"
     height="3.3194001"
     ry="0.039999999"
     id="rect56"
     style="fill:currentColor" />
  <rect
     x="33.6409"
     y="1.2414"
     width="0.13"
     height="2.8498001"
     ry="0.039999999"
     id="rect58"
     style="fill:currentColor" />
  <a
     style="color:inherit"
     xlink:href="textedit:///home/drt/Development/Audio/vtab-utils/examples/-:37:11:12"
     id="a60"
     transform="translate(-10.0711,-5.4503)">
    <g
       id="g62"
       style="color:#ffffff">
      <rect
         transform="translate(42.5258,17.8436)"
         x="0.098999999"
         y="-0.63169998"
         width="0.99019998"
         height="1.2632999"
         ry="0.0000"
         id="rect64"
         style="fill:currentColor" />
    </g>
    <text
       transform="translate(42.6248,18.4411)"
       font-weight="bold"
       font-size="1.7461"
       id="text66"
       style="font-weight:bold;font-size:1.74609995px;font-family:'LilyPond Serif';text-anchor:start;fill:currentColor">
      <tspan
         id="tspan68">2</tspan>
    </text>
  </a>
  <a
     style="color:inherit"
     xlink:href="textedit:///home/drt/Development/Audio/vtab-utils/examples/-:37:11:12"
     id="a70"
     transform="translate(-10.0711,-5.4503)">
    <path
       transform="matrix(0.004,0,0,-0.004,42.5258,9.7293)"
       d="m 220,138 c 56,0 109,-29 109,-91 0,-72 -56,-121 -103,-149 -36,-21 -76,-36 -117,-36 -56,0 -109,29 -109,91 0,72 56,121 103,149 36,21 76,36 117,36 z"
       id="path72"
       inkscape:connector-curvature="0"
       style="fill:currentColor" />
  </a>
  <a
     style="color:inherit"
     xlink:href="textedit:///home/drt/Development/Audio/vtab-utils/examples/-:37:19:20"
     id="a74"
     transform="translate(-10.0711,-5.4503)">
    <path
       transform="matrix(0.004,0,0,-0.004,44.9285,10.2293)"
       d="m 220,138 c 56,0 109,-29 109,-91 0,-72 -56,-121 -103,-149 -36,-21 -76,-36 -117,-36 -56,0 -109,29 -109,91 0,72 56,121 103,149 36,21 76,36 117,36 z"
       id="path76"
       inkscape:connector-curvature="0"
       style="fill:currentColor" />
  </a>
  <a
     style="color:inherit"
     xlink:href="textedit:///home/drt/Development/Audio/vtab-utils/examples/-:37:27:28"
     id="a78"
     transform="translate(-10.0711,-5.4503)">
    <path
       transform="matrix(0.004,0,0,-0.004,47.3311,10.7293)"
       d="m 220,138 c 56,0 109,-29 109,-91 0,-72 -56,-121 -103,-149 -36,-21 -76,-36 -117,-36 -56,0 -109,29 -109,91 0,72 56,121 103,149 36,21 76,36 117,36 z"
       id="path80"
       inkscape:connector-curvature="0"
       style="fill:currentColor" />
  </a>
  <rect
     x="36.043499"
     y="1.5066001"
     width="0.13"
     height="3.0846"
     ry="0.039999999"
     id="rect82"
     style="fill:currentColor" />
  <a
     style="color:inherit"
     xlink:href="textedit:///home/drt/Development/Audio/vtab-utils/examples/-:37:27:28"
     id="a84"
     transform="translate(-10.0711,-5.4503)">
    <g
       id="g86"
       style="color:#ffffff">
      <rect
         transform="translate(47.3311,19.3436)"
         x="0.098999999"
         y="-0.66579998"
         width="0.99019998"
         height="1.3316"
         ry="0.0000"
         id="rect88"
         style="fill:currentColor" />
    </g>
    <text
       transform="translate(47.4302,19.9411)"
       font-weight="bold"
       font-size="1.7461"
       id="text90"
       style="font-weight:bold;font-size:1.74609995px;font-family:'LilyPond Serif';text-anchor:start;fill:currentColor">
      <tspan
         id="tspan92">3</tspan>
    </text>
  </a>
  <polygon
     transform="translate(10.8799,3.589)"
     points="0.04,-0.2 7.298,-1.2 7.298,-0.8 0.04,0.2 "
     id="polygon94"
     style="fill:currentColor;stroke:currentColor;stroke-width:0.08;stroke-linecap:round;stroke-linejoin:round" />
  <a
     style="color:inherit"
     xlink:href="textedit:///home/drt/Development/Audio/vtab-utils/examples/-:37:3:4"
     id="a96"
     transform="translate(-10.0711,-5.4503)">
    <path
       transform="matrix(0.004,0,0,-0.004,40.1231,9.2293)"
       d="m 220,138 c 56,0 109,-29 109,-91 0,-72 -56,-121 -103,-149 -36,-21 -76,-36 -117,-36 -56,0 -109,29 -109,91 0,72 56,121 103,149 36,21 76,36 117,36 z"
       id="path98"
       inkscape:connector-curvature="0"
       style="fill:currentColor" />
  </a>
  <a
     style="color:inherit"
     xlink:href="textedit:///home/drt/Development/Audio/vtab-utils/examples/-:37:3:4"
     id="a100"
     transform="translate(-10.0711,-5.4503)">
    <g
       id="g102"
       style="color:#ffffff">
      <rect
         transform="translate(40.1231,16.3436)"
         x="0.098999999"
         y="-0.63169998"
         width="0.99019998"
         height="1.2632999"
         ry="0.0000"
         id="rect104"
         style="fill:currentColor" />
    </g>
    <text
       transform="translate(40.2221,16.9411)"
       font-weight="bold"
       font-size="1.7461"
       id="text106"
       style="font-weight:bold;font-size:1.74609995px;font-family:'LilyPond Serif';text-anchor:start;fill:currentColor">
      <tspan
         id="tspan108">0</tspan>
    </text>
  </a>
  <rect
     x="31.238199"
     y="0.97620004"
     width="0.13"
     height="2.615"
     ry="0.039999999"
     id="rect110"
     style="fill:currentColor" />
  <a
     style="color:inherit"
     xlink:href="textedit:///home/drt/Development/Audio/vtab-utils/examples/-:37:51:52"
     id="a112"
     transform="translate(-10.0711,-5.4503)">
    <path
       transform="matrix(0.004,0,0,-0.004,54.5392,12.2293)"
       d="m 220,138 c 56,0 109,-29 109,-91 0,-72 -56,-121 -103,-149 -36,-21 -76,-36 -117,-36 -56,0 -109,29 -109,91 0,72 56,121 103,149 36,21 76,36 117,36 z"
       id="path114"
       inkscape:connector-curvature="0"
       style="fill:currentColor" />
  </a>
  <a
     style="color:inherit"
     xlink:href="textedit:///home/drt/Development/Audio/vtab-utils/examples/-:37:51:52"
     id="a116"
     transform="translate(-10.0711,-5.4503)">
    <g
       id="g118"
       style="color:#ffffff">
      <rect
         transform="translate(54.5392,20.8436)"
         x="0.098999999"
         y="-0.66579998"
         width="0.99019998"
         height="1.3316"
         ry="0.0000"
         id="rect120"
         style="fill:currentColor" />
    </g>
    <text
       transform="translate(54.6382,21.4411)"
       font-weight="bold"
       font-size="1.7461"
       id="text122"
       style="font-weight:bold;font-size:1.74609995px;font-family:'LilyPond Serif';text-anchor:start;fill:currentColor">
      <tspan
         id="tspan124">3</tspan>
    </text>
  </a>
  <rect
     x="45.654202"
     y="3.279"
     width="0.13"
     height="3.3122001"
     ry="0.039999999"
     id="rect126"
     style="fill:currentColor" />
  <polygon
     transform="translate(40.8489,2.779)"
     points="0.04,-0.2 2.4927,-0.01 2.4927,0.39 0.04,0.2 "
     id="polygon128"
     style="fill:currentColor;stroke:currentColor;stroke-width:0.08;stroke-linecap:round;stroke-linejoin:round" />
  <polygon
     transform="translate(31.2382,0.969)"
     points="0.04,-0.2 7.298,0.61 7.298,1.01 0.04,0.2 "
     id="polygon130"
     style="fill:currentColor;stroke:currentColor;stroke-width:0.08;stroke-linecap:round;stroke-linejoin:round" />
  <polygon
     transform="translate(20.4906,1.589)"
     points="0.04,-0.2 7.298,-1.01 7.298,-0.61 0.04,0.2 "
     id="polygon132"
     style="fill:currentColor;stroke:currentColor;stroke-width:0.08;stroke-linecap:round;stroke-linejoin:round" />
  <a
     style="color:inherit"
     xlink:href="textedit:///home/drt/Development/Audio/vtab-utils/examples/-:37:35:36"
     id="a134"
     transform="translate(-10.0711,-5.4503)">
    <path
       transform="matrix(0.004,0,0,-0.004,49.7338,11.2293)"
       d="m 220,138 c 56,0 109,-29 109,-91 0,-72 -56,-121 -103,-149 -36,-21 -76,-36 -117,-36 -56,0 -109,29 -109,91 0,72 56,121 103,149 36,21 76,36 117,36 z"
       id="path136"
       inkscape:connector-curvature="0"
       style="fill:currentColor" />
  </a>
  <a
     style="color:inherit"
     xlink:href="textedit:///home/drt/Development/Audio/vtab-utils/examples/-:37:35:36"
     id="a138"
     transform="translate(-10.0711,-5.4503)">
    <g
       id="g140"
       style="color:#ffffff">
      <rect
         transform="translate(49.7338,19.3436)"
         x="0.098999999"
         y="-0.63169998"
         width="0.99019998"
         height="1.2632999"
         ry="0.0000"
         id="rect142"
         style="fill:currentColor" />
    </g>
    <text
       transform="translate(49.8328,19.9411)"
       font-weight="bold"
       font-size="1.7461"
       id="text144"
       style="font-weight:bold;font-size:1.74609995px;font-family:'LilyPond Serif';text-anchor:start;fill:currentColor">
      <tspan
         id="tspan146">2</tspan>
    </text>
  </a>
  <rect
     x="40.8489"
     y="2.7839"
     width="0.13"
     height="2.8073001"
     ry="0.039999999"
     id="rect148"
     style="fill:currentColor" />
  <a
     style="color:inherit"
     xlink:href="textedit:///home/drt/Development/Audio/vtab-utils/examples/-:37:43:44"
     id="a150"
     transform="translate(-10.0711,-5.4503)">
    <path
       transform="matrix(0.004,0,0,-0.004,52.1365,11.7293)"
       d="m 220,138 c 56,0 109,-29 109,-91 0,-72 -56,-121 -103,-149 -36,-21 -76,-36 -117,-36 -56,0 -109,29 -109,91 0,72 56,121 103,149 36,21 76,36 117,36 z"
       id="path152"
       inkscape:connector-curvature="0"
       style="fill:currentColor" />
  </a>
  <a
     style="color:inherit"
     xlink:href="textedit:///home/drt/Development/Audio/vtab-utils/examples/-:37:43:44"
     id="a154"
     transform="translate(-10.0711,-5.4503)">
    <g
       id="g156"
       style="color:#ffffff">
      <rect
         transform="translate(52.1365,19.3436)"
         x="0.098999999"
         y="-0.63169998"
         width="0.99019998"
         height="1.2632999"
         ry="0.0000"
         id="rect158"
         style="fill:currentColor" />
    </g>
    <text
       transform="translate(52.2355,19.9411)"
       font-weight="bold"
       font-size="1.7461"
       id="text160"
       style="font-weight:bold;font-size:1.74609995px;font-family:'LilyPond Serif';text-anchor:start;fill:currentColor">
      <tspan
         id="tspan162">0</tspan>
    </text>
  </a>
  <rect
     x="43.251598"
     y="2.9641001"
     width="0.13"
     height="3.1271"
     ry="0.039999999"
     id="rect164"
     style="fill:currentColor" />
  <a
     style="color:inherit"
     xlink:href="textedit:///home/drt/Development/Audio/vtab-utils/examples/-:36:19:20"
     id="a166"
     transform="translate(-10.0711,-5.4503)">
    <path
       transform="matrix(0.004,0,0,-0.004,24.5702,11.2293)"
       d="m 220,138 c 56,0 109,-29 109,-91 0,-72 -56,-121 -103,-149 -36,-21 -76,-36 -117,-36 -56,0 -109,29 -109,91 0,72 56,121 103,149 36,21 76,36 117,36 z"
       id="path168"
       inkscape:connector-curvature="0"
       style="fill:currentColor" />
  </a>
  <a
     style="color:inherit"
     xlink:href="textedit:///home/drt/Development/Audio/vtab-utils/examples/-:36:19:20"
     id="a170"
     transform="translate(-10.0711,-5.4503)">
    <g
       id="g172"
       style="color:#ffffff">
      <rect
         transform="translate(24.5702,19.3436)"
         x="0.098999999"
         y="-0.63169998"
         width="0.99019998"
         height="1.2632999"
         ry="0.0000"
         id="rect174"
         style="fill:currentColor" />
    </g>
    <text
       transform="translate(24.6692,19.9411)"
       font-weight="bold"
       font-size="1.7461"
       id="text176"
       style="font-weight:bold;font-size:1.74609995px;font-family:'LilyPond Serif';text-anchor:start;fill:currentColor">
      <tspan
         id="tspan178">2</tspan>
    </text>
  </a>
  <rect
     x="13.2826"
     y="3.2527001"
     width="0.13"
     height="2.8385"
     ry="0.039999999"
     id="rect180"
     style="fill:currentColor" />
  <a
     style="color:inherit"
     xlink:href="textedit:///home/drt/Development/Audio/vtab-utils/examples/-:36:11:12"
     id="a182"
     transform="translate(-10.0711,-5.4503)">
    <g
       id="g184"
       style="color:#ffffff">
      <rect
         transform="translate(22.1675,19.3436)"
         x="0.098999999"
         y="-0.63169998"
         width="0.99019998"
         height="1.2632999"
         ry="0.0000"
         id="rect186"
         style="fill:currentColor" />
    </g>
    <text
       transform="translate(22.2665,19.9411)"
       font-weight="bold"
       font-size="1.7461"
       id="text188"
       style="font-weight:bold;font-size:1.74609995px;font-family:'LilyPond Serif';text-anchor:start;fill:currentColor">
      <tspan
         id="tspan190">0</tspan>
    </text>
  </a>
  <a
     style="color:inherit"
     xlink:href="textedit:///home/drt/Development/Audio/vtab-utils/examples/-:36:11:12"
     id="a192"
     transform="translate(-10.0711,-5.4503)">
    <path
       transform="matrix(0.004,0,0,-0.004,22.1675,11.7293)"
       d="m 220,138 c 56,0 109,-29 109,-91 0,-72 -56,-121 -103,-149 -36,-21 -76,-36 -117,-36 -56,0 -109,29 -109,91 0,72 56,121 103,149 36,21 76,36 117,36 z"
       id="path194"
       inkscape:connector-curvature="0"
       style="fill:currentColor" />
  </a>
  <rect
     x="15.6853"
     y="2.9253001"
     width="0.13"
     height="2.6659"
     ry="0.039999999"
     id="rect196"
     style="fill:currentColor" />
  <a
     style="color:inherit"
     xlink:href="textedit:///home/drt/Development/Audio/vtab-utils/examples/-:36:27:28"
     id="a198"
     transform="translate(-10.0711,-5.4503)">
    <g
       id="g200"
       style="color:#ffffff">
      <rect
         transform="translate(26.9729,19.3436)"
         x="0.098999999"
         y="-0.66579998"
         width="0.99019998"
         height="1.3316"
         ry="0.0000"
         id="rect202"
         style="fill:currentColor" />
    </g>
    <text
       transform="translate(27.0719,19.9411)"
       font-weight="bold"
       font-size="1.7461"
       id="text204"
       style="font-weight:bold;font-size:1.74609995px;font-family:'LilyPond Serif';text-anchor:start;fill:currentColor">
      <tspan
         id="tspan206">3</tspan>
    </text>
  </a>
  <rect
     x="18.087999"
     y="2.5978999"
     width="0.13"
     height="2.4933"
     ry="0.039999999"
     id="rect208"
     style="fill:currentColor" />
  <rect
     x="10.8799"
     y="3.5801001"
     width="0.13"
     height="3.0109999"
     ry="0.039999999"
     id="rect210"
     style="fill:currentColor" />
  <path
     d="M 0,1.728 0,1.38 C 0,1.324 0.044,1.28 0.1,1.28 l 0.2,0 C 0.936,1.28 1.384,0.736 1.748,0.2 1.792,0.132 1.896,0.204 1.852,0.272 1.456,0.848 0.992,1.728 0.3,1.728 l -0.3,0 z"
     id="path212"
     inkscape:connector-curvature="0"
     style="fill:currentColor" />
  <path
     d="m 0,16.9443 0.3,0 c 0.692,0 1.156,0.88 1.552,1.456 0.044,0.068 -0.06,0.14 -0.104,0.072 -0.364,-0.536 -0.812,-1.08 -1.448,-1.08 l -0.2,0 c -0.056,0 -0.1,-0.044 -0.1,-0.1 l 0,-0.348 z"
     id="path214"
     inkscape:connector-curvature="0"
     style="fill:currentColor" />
  <rect
     x="0"
     y="1.6840999"
     width="0.44999999"
     height="15.3043"
     ry="0.0000"
     id="rect216"
     style="fill:currentColor" />
  <rect
     x="1.25"
     y="1.7291"
     width="0.16"
     height="15.2143"
     ry="0.050000001"
     id="rect218"
     style="fill:currentColor" />
  <a
     style="color:inherit"
     xlink:href="textedit:///home/drt/Development/Audio/vtab-utils/examples/-:36:3:4"
     id="a220"
     transform="translate(-10.0711,-5.4503)">
    <path
       transform="matrix(0.004,0,0,-0.004,19.7649,12.2293)"
       d="m 220,138 c 56,0 109,-29 109,-91 0,-72 -56,-121 -103,-149 -36,-21 -76,-36 -117,-36 -56,0 -109,29 -109,91 0,72 56,121 103,149 36,21 76,36 117,36 z"
       id="path222"
       inkscape:connector-curvature="0"
       style="fill:currentColor" />
  </a>
  <path
     d="m 3.174,7.319 -0.024,0 c -0.432,0 -0.78,-0.352 -0.78,-0.788 0,-0.232 0.212,-0.412 0.448,-0.412 0.216,0 0.38,0.188 0.38,0.412 0,0.208 -0.172,0.38 -0.38,0.38 -0.044,0 -0.084,-0.008 -0.124,-0.024 0.104,0.156 0.272,0.26 0.468,0.26 l 0.016,0 z M 3.954,5.591 C 4.226,5.495 4.406,5.211 4.406,4.935 4.406,4.575 4.142,4.219 3.714,4.175 3.81,4.639 3.898,5.099 3.954,5.591 Z M 2.406,4.667 c 0,0.54 0.516,0.988 1.056,0.988 0.112,0 0.22,-0.008 0.328,-0.024 C 3.734,5.123 3.642,4.651 3.538,4.175 3.222,4.207 3.042,4.419 3.042,4.651 c 0,0.176 0.1,0.364 0.324,0.492 0.02,0.02 0.028,0.04 0.028,0.06 0,0.044 -0.04,0.088 -0.088,0.088 C 3.294,5.291 3.282,5.287 3.27,5.283 2.95,5.111 2.802,4.823 2.802,4.543 2.802,4.191 3.034,3.847 3.442,3.755 3.386,3.523 3.326,3.287 3.258,3.055 2.83,3.539 2.406,4.027 2.406,4.667 Z M 3.45,5.827 C 2.698,5.827 2.118,5.139 2.118,4.331 2.118,3.623 2.642,3.107 3.11,2.567 3.034,2.319 2.962,2.067 2.93,1.807 2.906,1.599 2.902,1.391 2.902,1.183 c 0,-0.46 0.22,-0.896 0.596,-1.168 0.024,-0.02 0.056,-0.02 0.08,0 0.284,0.336 0.532,0.98 0.532,1.432 0,0.572 -0.344,1.02 -0.72,1.456 0.084,0.272 0.156,0.552 0.224,0.828 0.016,0 0.036,-0.004 0.052,-0.004 0.62,0 1.024,0.512 1.024,1.044 0,0.304 -0.132,0.616 -0.428,0.84 C 4.174,5.679 4.074,5.723 3.97,5.755 3.982,5.895 3.99,6.035 3.99,6.175 3.99,6.251 3.986,6.331 3.982,6.407 3.954,6.883 3.63,7.307 3.174,7.319 L 3.178,7.147 C 3.55,7.139 3.79,6.779 3.814,6.383 3.818,6.311 3.822,6.235 3.822,6.163 3.822,6.039 3.818,5.919 3.806,5.795 3.69,5.815 3.574,5.827 3.45,5.827 Z M 3.822,1.115 c 0,-0.22 -0.016,-0.316 -0.08,-0.516 -0.396,0.192 -0.648,0.596 -0.648,1.036 0,0.296 0.072,0.532 0.144,0.776 0.32,-0.388 0.584,-0.792 0.584,-1.296 z"
     id="path224"
     inkscape:connector-curvature="0"
     style="fill:currentColor" />
  <text
     font-style="italic"
     font-size="1.3860"
     id="text226"
     style="font-style:italic;font-size:1.38600004px;font-family:'LilyPond Serif';text-anchor:start;fill:currentColor"
     x="2.7434001"
     y="8.3092003">
    <tspan
       id="tspan228">8</tspan>
  </text>
  <a
     style="color:inherit"
     xlink:href="textedit:///home/drt/Development/Audio/vtab-utils/examples/-:30:2:3"
     id="a230"
     transform="translate(-10.0711,-5.4503)" />
  <a
     style="color:inherit"
     xlink:href="textedit:///home/drt/Development/Audio/vtab-utils/examples/-:31:2:3"
     id="a232"
     transform="translate(-10.0711,-5.4503)">
    <path
       transform="matrix(0.004,0,0,-0.004,16.3811,9.2293)"
       d="m 359,27 c -49,0 -75,42 -75,75 0,38 27,77 72,77 4,0 9,0 14,-1 -28,37 -72,59 -120,59 C 144,237 137,164 137,51 l 0,-51 0,-51 c 0,-113 7,-187 113,-187 80,0 139,70 158,151 2,7 7,10 12,10 6,0 13,-4 13,-12 0,-94 -105,-174 -183,-174 -68,0 -137,21 -184,70 C 17,-142 0,-71 0,0 c 0,71 17,142 66,193 47,49 116,69 184,69 87,0 160,-63 175,-149 1,-5 1,-10 1,-14 0,-40 -30,-72 -67,-72 z"
       id="path234"
       inkscape:connector-curvature="0"
       style="fill:currentColor" />
  </a>
  <g
     style="color:#ffffff"
     id="g238"
     transform="translate(-10.0711,-5.4503)">
    <rect
       style="fill:currentColor"
       id="rect240"
       ry="0.0000"
       height="1.3316"
       width="0.99019998"
       y="-0.66579998"
       x="0.098999999"
       transform="translate(19.7649,20.8436)" />
  </g>
  <text
     style="font-weight:bold;font-size:1.80675036px;font-family:'LilyPond Serif';text-anchor:start;fill:currentColor;-inkscape-font-specification:'LilyPond Serif, Bold';font-style:normal;font-stretch:normal;font-variant:normal;text-align:start;writing-mode:lr;line-height:125%;"
     id="text242"
     font-size="1.7461"
     font-weight="bold"
     x="9.7927999"
     y="15.9908"
     sodipodi:linespacing="125%">
    <tspan
       id="tspan244"
       style="-inkscape-font-specification:'LilyPond Serif, Bold';font-family:'LilyPond Serif';font-weight:bold;font-style:normal;font-stretch:normal;font-variant:normal;font-size:1.80675036px;text-anchor:start;text-align:start;writing-mode:lr;line-height:125%;">3</tspan>
  </text>
  <path
     d="m 3.178,14.8433 c 0,0.096 -0.092,0.108 -0.172,0.108 -0.18,0 -0.336,-0.124 -0.336,-0.3 0,-0.328 0.472,-0.52 0.936,-0.52 0.416,0 0.86,0.088 0.86,0.412 0,0.204 -0.124,0.344 -0.276,0.44 0.232,0.044 0.408,0.144 0.408,0.364 0,0.36 -0.376,0.632 -0.716,0.632 -0.164,0 -0.32,-0.06 -0.432,-0.208 -0.008,-0.008 -0.012,-0.02 -0.012,-0.032 0,-0.048 0.064,-0.1 0.112,-0.1 0.016,0 0.032,0.004 0.04,0.016 0.044,0.06 0.108,0.084 0.176,0.084 0.172,0 0.38,-0.16 0.38,-0.372 0,-0.184 -0.196,-0.252 -0.4,-0.252 l -0.004,0 c -0.024,0 -0.032,-0.032 -0.032,-0.064 0,-0.044 0.02,-0.096 0.072,-0.096 l 0.004,0 c 0.144,0 0.272,-0.156 0.272,-0.308 0,-0.18 -0.144,-0.272 -0.32,-0.304 -0.044,0.248 -0.124,0.692 -0.16,0.88 -0.08,0.408 -0.336,0.808 -0.636,0.808 -0.176,0 -0.272,-0.136 -0.384,-0.212 -0.012,-0.008 -0.016,-0.02 -0.016,-0.036 0,-0.044 0.048,-0.104 0.096,-0.104 0.012,0 0.02,0 0.028,0.008 0.08,0.052 0.144,0.14 0.26,0.14 0.26,0 0.356,-0.396 0.356,-0.78 l 0,-0.032 c 0,-0.14 0.036,-0.436 0.072,-0.652 -0.156,0.052 -0.28,0.16 -0.28,0.28 0,0.06 0.032,0.112 0.076,0.136 0.016,0.012 0.028,0.036 0.028,0.064 z m 0.136,-1.368 c -0.172,0.164 -0.456,0.42 -0.692,0.42 -0.132,0 -0.208,-0.084 -0.312,-0.128 -0.012,-0.004 -0.02,-0.02 -0.02,-0.036 0,-0.044 0.044,-0.112 0.1,-0.112 0.008,0 0.02,0.004 0.028,0.008 0.064,0.028 0.12,0.072 0.2,0.072 0.136,0 0.26,-0.108 0.364,-0.216 0.4,-0.408 0.7,-0.876 0.856,-1.344 0.036,-0.108 0.132,-0.148 0.228,-0.148 0.116,0 0.228,0.06 0.228,0.124 0,0.008 -0.004,0.016 -0.008,0.024 -0.016,0.464 -0.036,0.932 -0.064,1.4 l 0,0.036 c 0,0.064 0.012,0.12 0.084,0.12 0.064,0 0.14,-0.052 0.212,-0.076 l 0.008,-0.004 c 0.02,0 0.036,0.032 0.036,0.068 0,0.032 -0.012,0.064 -0.048,0.076 -0.116,0.036 -0.216,0.136 -0.348,0.136 -0.128,0 -0.18,-0.116 -0.212,-0.232 -0.064,-0.244 -0.104,-0.5 -0.124,-0.764 -0.108,0.14 -0.224,0.272 -0.348,0.404 0.044,0.08 0.132,0.132 0.256,0.132 0.016,0 0.032,-0.004 0.048,-0.004 0.02,0 0.032,0.028 0.032,0.06 0,0.1 -0.136,0.116 -0.224,0.116 -0.128,0 -0.224,-0.048 -0.28,-0.132 z m -0.052,-2.492 c 0,0.092 -0.092,0.096 -0.168,0.096 -0.196,0 -0.364,-0.144 -0.364,-0.336 0,-0.38 0.5,-0.48 0.928,-0.48 0.196,0 0.476,0.164 0.684,0.164 0.152,0 0.308,-0.06 0.44,-0.164 0.012,-0.008 0.024,-0.012 0.036,-0.012 0.044,0 0.092,0.044 0.092,0.076 0,0.008 -0.004,0.012 -0.008,0.016 -0.16,0.18 -0.38,0.284 -0.592,0.284 -0.06,0 -0.124,-0.008 -0.176,-0.024 -0.036,0.236 -0.104,0.604 -0.14,0.772 -0.088,0.384 -0.352,0.74 -0.652,0.74 -0.208,0 -0.324,-0.168 -0.46,-0.256 -0.012,-0.008 -0.016,-0.02 -0.016,-0.036 0,-0.044 0.048,-0.104 0.092,-0.104 0.008,0 0.02,0.004 0.028,0.008 0.092,0.06 0.172,0.184 0.3,0.184 0.224,0 0.328,-0.308 0.34,-0.6 0.008,-0.18 0.052,-0.6 0.088,-0.832 -0.048,-0.012 -0.124,-0.02 -0.128,-0.02 -0.204,0 -0.452,0.084 -0.452,0.28 0,0.072 0.04,0.144 0.096,0.172 0.02,0.012 0.032,0.04 0.032,0.072 z"
     id="path246"
     inkscape:connector-curvature="0"
     style="fill:currentColor" />
  <a
     style="color:inherit"
     xlink:href="textedit:///home/drt/Development/Audio/vtab-utils/examples/-:36:27:28"
     id="a248"
     transform="translate(-10.0711,-5.4503)">
    <path
       transform="matrix(0.004,0,0,-0.004,26.9729,10.7293)"
       d="m 220,138 c 56,0 109,-29 109,-91 0,-72 -56,-121 -103,-149 -36,-21 -76,-36 -117,-36 -56,0 -109,29 -109,91 0,72 56,121 103,149 36,21 76,36 117,36 z"
       id="path250"
       inkscape:connector-curvature="0"
       style="fill:currentColor" />
  </a>
  <a
     style="color:inherit"
     xlink:href="textedit:///home/drt/Development/Audio/vtab-utils/examples/-:36:51:52"
     id="a252"
     transform="translate(-10.0711,-5.4503)">
    <path
       transform="matrix(0.004,0,0,-0.004,34.1809,9.2293)"
       d="m 220,138 c 56,0 109,-29 109,-91 0,-72 -56,-121 -103,-149 -36,-21 -76,-36 -117,-36 -56,0 -109,29 -109,91 0,72 56,121 103,149 36,21 76,36 117,36 z"
       id="path254"
       inkscape:connector-curvature="0"
       style="fill:currentColor" />
  </a>
  <a
     style="color:inherit"
     xlink:href="textedit:///home/drt/Development/Audio/vtab-utils/examples/-:36:51:52"
     id="a256"
     transform="translate(-10.0711,-5.4503)">
    <g
       id="g258"
       style="color:#ffffff">
      <rect
         transform="translate(34.1809,16.3436)"
         x="0.098999999"
         y="-0.63169998"
         width="0.99019998"
         height="1.2632999"
         ry="0.0000"
         id="rect260"
         style="fill:currentColor" />
    </g>
    <text
       transform="translate(34.2799,16.9411)"
       font-weight="bold"
       font-size="1.7461"
       id="text262"
       style="font-weight:bold;font-size:1.74609995px;font-family:'LilyPond Serif';text-anchor:start;fill:currentColor">
      <tspan
         id="tspan264">0</tspan>
    </text>
  </a>
  <rect
     x="25.296"
     y="1.0513999"
     width="0.13"
     height="2.5397999"
     ry="0.039999999"
     id="rect266"
     style="fill:currentColor" />
  <a
     style="color:inherit"
     xlink:href="textedit:///home/drt/Development/Audio/vtab-utils/examples/-:36:59:60"
     id="a268"
     transform="translate(-10.0711,-5.4503)">
    <path
       transform="matrix(0.004,0,0,-0.004,36.5836,8.7293)"
       d="m 220,138 c 56,0 109,-29 109,-91 0,-72 -56,-121 -103,-149 -36,-21 -76,-36 -117,-36 -56,0 -109,29 -109,91 0,72 56,121 103,149 36,21 76,36 117,36 z"
       id="path270"
       inkscape:connector-curvature="0"
       style="fill:currentColor" />
  </a>
  <a
     style="color:inherit"
     xlink:href="textedit:///home/drt/Development/Audio/vtab-utils/examples/-:36:59:60"
     id="a272"
     transform="translate(-10.0711,-5.4503)">
    <g
       id="g274"
       style="color:#ffffff">
      <rect
         transform="translate(36.5836,16.3436)"
         x="0.098999999"
         y="-0.6146"
         width="0.99019998"
         height="1.2292"
         ry="0.0000"
         id="rect276"
         style="fill:currentColor" />
    </g>
    <text
       transform="translate(36.6826,16.9582)"
       font-weight="bold"
       font-size="1.7461"
       id="text278"
       style="font-weight:bold;font-size:1.74609995px;font-family:'LilyPond Serif';text-anchor:start;fill:currentColor">
      <tspan
         id="tspan280">1</tspan>
    </text>
  </a>
  <rect
     x="27.6987"
     y="0.78619999"
     width="0.13"
     height="2.3050001"
     ry="0.039999999"
     id="rect282"
     style="fill:currentColor" />
  <a
     style="color:inherit"
     xlink:href="textedit:///home/drt/Development/Audio/vtab-utils/examples/-:36:35:36"
     id="a284"
     transform="translate(-10.0711,-5.4503)">
    <path
       transform="matrix(0.004,0,0,-0.004,29.3756,10.2293)"
       d="m 220,138 c 56,0 109,-29 109,-91 0,-72 -56,-121 -103,-149 -36,-21 -76,-36 -117,-36 -56,0 -109,29 -109,91 0,72 56,121 103,149 36,21 76,36 117,36 z"
       id="path286"
       inkscape:connector-curvature="0"
       style="fill:currentColor" />
  </a>
  <a
     style="color:inherit"
     xlink:href="textedit:///home/drt/Development/Audio/vtab-utils/examples/-:36:35:36"
     id="a288"
     transform="translate(-10.0711,-5.4503)">
    <g
       id="g290"
       style="color:#ffffff">
      <rect
         transform="translate(29.3756,17.8436)"
         x="0.098999999"
         y="-0.63169998"
         width="0.99019998"
         height="1.2632999"
         ry="0.0000"
         id="rect292"
         style="fill:currentColor" />
    </g>
    <text
       transform="translate(29.4746,18.4411)"
       font-weight="bold"
       font-size="1.7461"
       id="text294"
       style="font-weight:bold;font-size:1.74609995px;font-family:'LilyPond Serif';text-anchor:start;fill:currentColor">
      <tspan
         id="tspan296">0</tspan>
    </text>
  </a>
  <rect
     x="20.490601"
     y="1.5818"
     width="0.13"
     height="3.0093999"
     ry="0.039999999"
     id="rect298"
     style="fill:currentColor" />
  <rect
     x="22.893299"
     y="1.3166001"
     width="0.13"
     height="2.7746"
     ry="0.039999999"
     id="rect300"
     style="fill:currentColor" />
  <a
     style="color:inherit"
     xlink:href="textedit:///home/drt/Development/Audio/vtab-utils/examples/-:36:43:44"
     id="a302"
     transform="translate(-10.0711,-5.4503)">
    <g
       id="g304"
       style="color:#ffffff">
      <rect
         transform="translate(31.7782,17.8436)"
         x="0.098999999"
         y="-0.63169998"
         width="0.99019998"
         height="1.2632999"
         ry="0.0000"
         id="rect306"
         style="fill:currentColor" />
    </g>
    <text
       transform="translate(31.8772,18.4411)"
       font-weight="bold"
       font-size="1.7461"
       id="text308"
       style="font-weight:bold;font-size:1.74609995px;font-family:'LilyPond Serif';text-anchor:start;fill:currentColor">
      <tspan
         id="tspan310">2</tspan>
    </text>
  </a>
  <a
     style="color:inherit"
     xlink:href="textedit:///home/drt/Development/Audio/vtab-utils/examples/-:36:43:44"
     id="a312"
     transform="translate(-10.0711,-5.4503)">
    <path
       transform="matrix(0.004,0,0,-0.004,31.7782,9.7293)"
       d="m 220,138 c 56,0 109,-29 109,-91 0,-72 -56,-121 -103,-149 -36,-21 -76,-36 -117,-36 -56,0 -109,29 -109,91 0,72 56,121 103,149 36,21 76,36 117,36 z"
       id="path314"
       inkscape:connector-curvature="0"
       style="fill:currentColor" />
  </a>
</svg>
